<svg width="6673" height="428" viewBox="0 0 6673 428" fill="none" xmlns="http://www.w3.org/2000/svg">
<path d="M0.800003 420V-2.86102e-05H98V340.8H308.6V420H0.800003ZM759.495 420V-2.86102e-05H856.695V420H759.495ZM1352.37 420V-2.86102e-05H1557.57C1610.37 -2.86102e-05 1649.97 9.99997 1676.37 30C1703.17 50 1716.57 76.4 1716.57 109.2C1716.57 131.2 1711.17 150.4 1700.37 166.8C1689.57 182.8 1674.77 195.2 1655.97 204C1637.17 212.8 1615.57 217.2 1591.17 217.2L1602.57 192.6C1628.97 192.6 1652.37 197 1672.77 205.8C1693.17 214.2 1708.97 226.8 1720.17 243.6C1731.77 260.4 1737.57 281 1737.57 305.4C1737.57 341.4 1723.37 369.6 1694.97 390C1666.57 410 1624.77 420 1569.57 420H1352.37ZM1448.97 346.8H1562.37C1587.57 346.8 1606.57 342.8 1619.37 334.8C1632.57 326.4 1639.17 313.2 1639.17 295.2C1639.17 277.6 1632.57 264.6 1619.37 256.2C1606.57 247.4 1587.57 243 1562.37 243H1441.77V172.2H1545.57C1569.17 172.2 1587.17 168.2 1599.57 160.2C1612.37 151.8 1618.77 139.2 1618.77 122.4C1618.77 106 1612.37 93.8 1599.57 85.8C1587.17 77.4 1569.17 73.2 1545.57 73.2H1448.97V346.8ZM2207.16 420V-2.86102e-05H2388.96C2426.56 -2.86102e-05 2458.96 6.19998 2486.16 18.6C2513.36 30.6 2534.36 48 2549.16 70.8C2563.96 93.6 2571.36 120.8 2571.36 152.4C2571.36 183.6 2563.96 210.6 2549.16 233.4C2534.36 255.8 2513.36 273 2486.16 285C2458.96 297 2426.56 303 2388.96 303H2261.16L2304.36 260.4V420H2207.16ZM2474.16 420L2369.16 267.6H2472.96L2579.16 420H2474.16ZM2304.36 271.2L2261.16 225.6H2383.56C2413.56 225.6 2435.96 219.2 2450.76 206.4C2465.56 193.2 2472.96 175.2 2472.96 152.4C2472.96 129.2 2465.56 111.2 2450.76 98.4C2435.96 85.6 2413.56 79.2 2383.56 79.2H2261.16L2304.36 33V271.2Z" fill="#1D3652"/>
<path d="M2989.17 420L3176.37 -2.86102e-05H3272.37L3460.17 420H3358.17L3204.57 49.2H3242.97L3088.77 420H2989.17ZM3082.77 330L3108.57 256.2H3324.57L3350.97 330H3082.77Z" fill="url(#paint0_linear_35_297)"/>
<path d="M3899.75 420V-2.86102e-05H4081.55C4119.15 -2.86102e-05 4151.55 6.19998 4178.75 18.6C4205.95 30.6 4226.95 48 4241.75 70.8C4256.55 93.6 4263.95 120.8 4263.95 152.4C4263.95 183.6 4256.55 210.6 4241.75 233.4C4226.95 255.8 4205.95 273 4178.75 285C4151.55 297 4119.15 303 4081.55 303H3953.75L3996.95 260.4V420H3899.75ZM4166.75 420L4061.75 267.6H4165.55L4271.75 420H4166.75ZM3996.95 271.2L3953.75 225.6H4076.15C4106.15 225.6 4128.55 219.2 4143.35 206.4C4158.15 193.2 4165.55 175.2 4165.55 152.4C4165.55 129.2 4158.15 111.2 4143.35 98.4C4128.55 85.6 4106.15 79.2 4076.15 79.2H3953.75L3996.95 33V271.2ZM4736.96 420V-2.86102e-05H4834.16V420H4736.96ZM5516.43 427.2C5456.83 427.2 5410.23 410.6 5376.63 377.4C5343.03 344.2 5326.23 296.8 5326.23 235.2V-2.86102e-05H5423.43V231.6C5423.43 271.6 5431.63 300.4 5448.03 318C5464.43 335.6 5487.43 344.4 5517.03 344.4C5546.63 344.4 5569.63 335.6 5586.03 318C5602.43 300.4 5610.63 271.6 5610.63 231.6V-2.86102e-05H5706.63V235.2C5706.63 296.8 5689.83 344.2 5656.23 377.4C5622.63 410.6 5576.03 427.2 5516.43 427.2ZM6198.68 420V-2.86102e-05H6279.08L6457.88 296.4H6415.28L6591.08 -2.86102e-05H6670.88L6672.08 420H6580.88L6580.28 139.8H6597.08L6456.68 375.6H6412.88L6269.48 139.8H6289.88V420H6198.68Z" fill="white"/>
<defs>
<linearGradient id="paint0_linear_35_297" x1="-49" y1="205" x2="6722" y2="205" gradientUnits="userSpaceOnUse">
<stop offset="0.485477" stop-color="#1D3652"/>
<stop offset="0.485577" stop-color="white"/>
</linearGradient>
</defs>
</svg>
